# xmcd
# Copyright (C) 1995-1998 Ti Kan
#
# Track frame offsets:
#       150
#       18476
#       39609
#       66040
#       87005
#       104841
#       121496
#       139687
#       158358
#       191444
#       205554
#       225026
#       249819
#       269355
#
# Disc length: 3836 seconds
#
# Revision: 0
# Processed by: cddbd v1.5.2PL0 Copyright (c) Steve Scherf et al.
# Submitted via: CD-Transfer v1.0
#
DISCID=a90efa0e
DTITLE=Dynamics, The - 
DYEAR=07
DGENRE=
TTITLE0=Dynamic Sound, The
TTITLE1=Girls And Boys (C)
TTITLE2=Seven Natin Army (C)
TTITLE3=Land Of 1000 Dances (C)
TTITLE4=Lay, Lady, Lay (C)
TTITLE5=Miss You (C)
TTITLE6=Rock It (C)
TTITLE7=Brothers On The Slyde (C)
TTITLE8=90 % Of Me Is You (C)
TTITLE9=Whole Lotta Love (C)
TTITLE10=Feel Like A Making Love (C)
TTITLE11=Creator Has A Masterplan, The (C)
TTITLE12=Fever (C)
TTITLE13=Move On Up (C)
EXTD=
EXTT0=
EXTT1=
EXTT2=
EXTT3=
EXTT4=
EXTT5=
EXTT6=
EXTT7=
EXTT8=
EXTT9=
EXTT10=
EXTT11=
EXTT12=
EXTT13=
PLAYORDER=
